#N canvas 126 129 1920 997 12;
#X obj 334 284 snap2scale;
#X obj 287 57 bng 19 250 50 0 bang empty empty 0 -10 0 12 #fcfcfc #000000 #000000;
#X obj 310 165 random 12;
#X obj 443 720 dac~;
#X obj 334 335 mtof;
#X obj 329 506 *~;
#X obj 213 476 vline~;
#X obj 626 -8 nbx 5 17 -1e+37 1e+37 0 0 empty empty empty 0 -10 0 12 #fcfcfc #000000 #000000 0 256;
#X obj 378 16 bng 19 250 50 0 empty empty empty 0 -10 0 12 #fcfcfc #000000 #000000;
#X obj 356 69 nbx 5 17 -1e+37 1e+37 0 0 empty empty empty 0 -10 0 12 #fcfcfc #000000 #000000 0 256;
#X obj 328 400 osc~;
#X obj 371 227 + 50;
#X msg 91 415 1 1000 \, 0 5000 1000;
#X obj 451 276 snap2scale;
#X obj 427 157 random 12;
#X obj 451 327 mtof;
#X obj 442 409 osc~;
#X obj 578 274 snap2scale;
#X obj 554 155 random 12;
#X obj 578 325 mtof;
#X obj 581 402 osc~;
#X obj 371 549 *~ 0.3;
#X obj 573 47 msg;
#X obj 102 53;
#X msg 683 60 seed 22;
#X msg 786 75 seed 25;
#X obj 470 665 clip~ -1 1;
#X obj 432 622 rev1~ 80;
#X obj 500 558 nbx 5 17 -1e+37 1e+37 0 0 empty empty empty 0 -10 0 12 #fcfcfc #000000 #000000 0 256;
#X obj 488 219 + 62;
#X obj 615 217 + 74;
#X connect 0 0 4 0;
#X connect 0 0 12 0;
#X connect 1 0 2 0;
#X connect 1 0 14 0;
#X connect 1 0 18 0;
#X connect 2 0 11 0;
#X connect 4 0 10 0;
#X connect 5 0 21 0;
#X connect 6 0 5 0;
#X connect 9 0 11 1;
#X connect 10 0 5 1;
#X connect 11 0 0 1;
#X connect 12 0 6 0;
#X connect 13 0 15 0;
#X connect 14 0 29 0;
#X connect 15 0 16 0;
#X connect 16 0 5 1;
#X connect 17 0 19 0;
#X connect 18 0 30 0;
#X connect 19 0 20 0;
#X connect 20 0 5 1;
#X connect 21 0 27 0;
#X connect 24 0 14 0;
#X connect 25 0 18 0;
#X connect 26 0 3 0;
#X connect 26 0 3 1;
#X connect 27 0 26 0;
#X connect 28 0 27 1;
#X connect 29 0 13 1;
#X connect 30 0 17 1;
