#N canvas 542 775 450 300 12;
#X obj 23 21 inlet;
#X obj 24 165 outlet~;
#X obj 24 131 osc~;
#X obj 107 88 osc~;
#X obj 104 52 *~ 2;
#X obj 25 104 +~;
#X obj 109 119 *~;
#X obj 26 52 sig~ 300;
#X obj 92 20 inlet;
#X obj 159 17 inlet;
#X obj 169 89 *~ 1;
#X floatatom 216 42 5 0 0 0 - - - 0;
#X floatatom 263 42 5 0 0 0 - - - 0;
#X floatatom 310 42 5 0 0 0 - - - 0;
#X connect 0 0 7 0;
#X connect 0 0 11 0;
#X connect 2 0 1 0;
#X connect 3 0 6 0;
#X connect 4 0 3 0;
#X connect 4 0 10 0;
#X connect 5 0 2 0;
#X connect 6 0 5 1;
#X connect 7 0 4 0;
#X connect 7 0 5 0;
#X connect 8 0 4 1;
#X connect 8 0 12 0;
#X connect 9 0 10 1;
#X connect 9 0 13 0;
#X connect 10 0 6 1;
