#N canvas 1069 690 450 300 12;
#X obj 23 86 dac~;
#X obj 23 21 r osc-frequency;
#X obj 23 52 abstraction;
#X obj 121 52 print slider;
#X connect 1 0 2 0;
#X connect 1 0 3 0;
#X connect 2 0 0 0;
#X connect 2 0 0 1;
