#N canvas 852 473 420 300 12;
#X obj 16 169 dac~;
#X obj 16 17 r osc-frequency;
#X obj 16 48 abstraction;
#X obj 114 48 print slider;
#X obj 138 16 r harmonic-ratio;
#X obj 272 15 r modulation-index;
#X obj 16 77 *~ 0.8;
#X obj 87 107 r enable-osc;
#X obj 16 140 *~ 0;
#X connect 1 0 2 0;
#X connect 1 0 3 0;
#X connect 2 0 6 0;
#X connect 4 0 2 1;
#X connect 5 0 2 2;
#X connect 6 0 8 0;
#X connect 7 0 8 1;
#X connect 8 0 0 0;
